<svg width="35" height="35" viewBox="0 0 35 35" fill="none" xmlns="http://www.w3.org/2000/svg">
<path d="M9.02344 31V10.5605H2.66602V31H9.02344ZM5.81055 7.82617C7.86133 7.82617 9.50195 6.11719 9.50195 4.06641C9.50195 2.08398 7.86133 0.443359 5.81055 0.443359C3.82812 0.443359 2.1875 2.08398 2.1875 4.06641C2.1875 6.11719 3.82812 7.82617 5.81055 7.82617ZM32.7441 31H32.8125V19.7891C32.8125 14.3203 31.582 10.082 25.1562 10.082C22.0801 10.082 20.0293 11.791 19.1406 13.3633H19.0723V10.5605H12.9883V31H19.3457V20.8828C19.3457 18.2168 19.8242 15.6875 23.1055 15.6875C26.3867 15.6875 26.4551 18.6953 26.4551 21.0879V31H32.7441Z" fill="white"/>
</svg>
