<svg width="35" height="35" viewBox="0 0 35 35" fill="none" xmlns="http://www.w3.org/2000/svg">
<path d="M34.2322 9.13021C33.8483 7.50521 32.6325 6.21875 31.1609 5.8125C28.4095 5 17.532 5 17.532 5C17.532 5 6.59049 5 3.83912 5.8125C2.36746 6.21875 1.15174 7.50521 0.767825 9.13021C0 11.974 0 18.0677 0 18.0677C0 18.0677 0 24.0938 0.767825 27.0052C1.15174 28.6302 2.36746 29.849 3.83912 30.2552C6.59049 31 17.532 31 17.532 31C17.532 31 28.4095 31 31.1609 30.2552C32.6325 29.849 33.8483 28.6302 34.2322 27.0052C35 24.0938 35 18.0677 35 18.0677C35 18.0677 35 11.974 34.2322 9.13021ZM13.9488 23.5521V12.5833L23.0347 18.0677L13.9488 23.5521Z" fill="white"/>
</svg>
