<svg width="35" height="35" viewBox="0 0 35 35" fill="none" xmlns="http://www.w3.org/2000/svg">
<path d="M31.377 10.7656C32.7441 9.74023 33.9746 8.50977 34.9316 7.07422C33.7012 7.62109 32.2656 8.03125 30.8301 8.16797C32.334 7.2793 33.4277 5.91211 33.9746 4.20312C32.6074 5.02344 31.0352 5.63867 29.4629 5.98047C28.0957 4.54492 26.25 3.72461 24.1992 3.72461C20.2344 3.72461 17.0215 6.9375 17.0215 10.9023C17.0215 11.4492 17.0898 11.9961 17.2266 12.543C11.2793 12.2012 5.94727 9.33008 2.39258 5.02344C1.77734 6.04883 1.43555 7.2793 1.43555 8.64648C1.43555 11.1074 2.66602 13.2949 4.64844 14.5938C3.48633 14.5254 2.32422 14.252 1.36719 13.7051V13.7734C1.36719 17.2598 3.82812 20.1309 7.10938 20.8145C6.5625 20.9512 5.87891 21.0879 5.26367 21.0879C4.78516 21.0879 4.375 21.0195 3.89648 20.9512C4.78516 23.8223 7.45117 25.873 10.5957 25.9414C8.13477 27.8555 5.05859 29.0176 1.70898 29.0176C1.09375 29.0176 0.546875 28.9492 0 28.8809C3.14453 30.9316 6.9043 32.0938 11.0059 32.0938C24.1992 32.0938 31.377 21.2246 31.377 11.7227C31.377 11.3809 31.377 11.1074 31.377 10.7656Z" fill="white"/>
</svg>
